<svg width="116" height="20" viewBox="0 0 116 20" fill="none" xmlns="http://www.w3.org/2000/svg">
<path d="M9.99996 1.66663L12.575 6.88329L18.3333 7.72496L14.1666 11.7833L15.15 17.5166L9.99996 14.8083L4.84996 17.5166L5.83329 11.7833L1.66663 7.72496L7.42496 6.88329L9.99996 1.66663Z" stroke="#2C2C2C" stroke-width="2" stroke-linecap="round" stroke-linejoin="round"/>
<path d="M34 1.66663L36.575 6.88329L42.3333 7.72496L38.1666 11.7833L39.15 17.5166L34 14.8083L28.85 17.5166L29.8333 11.7833L25.6666 7.72496L31.425 6.88329L34 1.66663Z" stroke="#2C2C2C" stroke-width="2" stroke-linecap="round" stroke-linejoin="round"/>
<path d="M58 1.66663L60.575 6.88329L66.3333 7.72496L62.1666 11.7833L63.15 17.5166L58 14.8083L52.85 17.5166L53.8333 11.7833L49.6666 7.72496L55.425 6.88329L58 1.66663Z" stroke="#2C2C2C" stroke-width="2" stroke-linecap="round" stroke-linejoin="round"/>
<path d="M82 1.66663L84.575 6.88329L90.3333 7.72496L86.1666 11.7833L87.15 17.5166L82 14.8083L76.85 17.5166L77.8333 11.7833L73.6666 7.72496L79.425 6.88329L82 1.66663Z" stroke="#2C2C2C" stroke-width="2" stroke-linecap="round" stroke-linejoin="round"/>
<path d="M106 1.66663L108.575 6.88329L114.333 7.72496L110.167 11.7833L111.15 17.5166L106 14.8083L100.85 17.5166L101.833 11.7833L97.6666 7.72496L103.425 6.88329L106 1.66663Z" stroke="#2C2C2C" stroke-width="2" stroke-linecap="round" stroke-linejoin="round"/>
</svg>
